<?xml version="1.0" encoding="UTF-8"?>
<svg id="_图层_2" data-name="图层 2" xmlns="http://www.w3.org/2000/svg" viewBox="0 0 158.94 152.54">
  <defs>
    <style>
      .cls-1 {
        fill: #e9ca38;
      }

      .cls-1, .cls-2, .cls-3, .cls-4, .cls-5, .cls-6 {
        stroke-width: 0px;
      }

      .cls-2 {
        fill: #e27842;
      }

      .cls-3 {
        fill: #175da4;
      }

      .cls-4 {
        fill: #a1c8cf;
      }

      .cls-5 {
        fill: #0a152f;
      }

      .cls-6 {
        fill: #fff;
      }
    </style>
  </defs>
  <g id="_图层_3" data-name="图层 3">
    <g>
      <path class="cls-2" d="m158.62,9.74c.22.63-.02,1.41-.77,1.74l-19.8,8.53c-.2.08-.37.21-.5.37l-.26-.1-.82-6.99,21.36-3.08v-.26l.79-.21Z"/>
      <path class="cls-2" d="m158.62,9.74l-.79.21-21.45,1.95-1.7-6,.29-.43c.15.08.3.14.47.16,2.22.32,14.91,2.15,22.06,3.18.59.08.97.47,1.12.93Z"/>
      <path class="cls-3" d="m102.02,11.92l-.11-.08c6.07-8.02,17.54-17.74,32.92-6.47.04.03.09.07.14.1l-.29.43,1.7,6,21.45-1.95v.26l-21.36,3.08.82,6.99.26.1c-.05.06-.09.12-.13.18l-6.42,10.33c-.14.22-.21,6.57-.21,6.84v18.45s-7.65-16.5-22.89-20.98c-14.98-4.39-6.19-22.66-5.88-23.28Zm26.44-.02c0-2.67-2.16-4.83-4.83-4.83s-4.82,2.16-4.82,4.83,2.16,4.82,4.82,4.82,4.83-2.16,4.83-4.82Z"/>
      <path class="cls-1" d="m60.96,103.93s-.02-.02-.04-.02c-1.33-.68-7.7-4.34-7.68-12.63,0-.1-.08-.16-.15-.16l-.12-.4c10.66-3.22,22.84-8.09,36.2-15.29.01,0,.01-.01.02-.01,17.45-7.04,34.15-20.3,4.3-46.25-.48-.42-2.49-.91-3.55-.98.88-1.05,7.03-8.34,7.08-8.42.02-.03.04-.06.05-.1.33-.7,1.99-4.08,4.84-7.83l.11.08c-.31.62-9.1,18.89,5.88,23.28,15.24,4.48,22.89,20.98,22.89,20.98v.32s5.21,20.72-14.48,39.38c-4.14,3.93-8.81,6.75-13.64,8.7-1.2.49-2.4.92-3.61,1.29-2.69.86-5.4,1.46-8.08,1.86-1.41.22-2.8.38-4.18.48-11.07.87-20.96-1.45-25.18-3.86-.24-.14-.46-.28-.66-.42Z"/>
      <path class="cls-6" d="m123.63,7.07c2.67,0,4.83,2.16,4.83,4.83s-2.16,4.82-4.83,4.82-4.82-2.16-4.82-4.82,2.16-4.83,4.82-4.83Zm3.45,4.83c0-1.91-1.55-3.45-3.45-3.45s-3.44,1.54-3.44,3.45,1.54,3.44,3.44,3.44,3.45-1.54,3.45-3.44Z"/>
      <path class="cls-5" d="m123.63,8.45c1.9,0,3.45,1.54,3.45,3.45s-1.55,3.44-3.45,3.44-3.44-1.54-3.44-3.44,1.54-3.45,3.44-3.45Z"/>
      <path class="cls-5" d="m120.88,127.76c1.3,0,2.35,1.06,2.35,2.36,0,.65-.26,1.24-.69,1.66-.42.43-1.01.69-1.66.69h-36.44c-1.3,0-2.35-1.05-2.35-2.35,0-.65.26-1.24.69-1.67.42-.43,1.01-.69,1.66-.69h36.44Z"/>
      <path class="cls-2" d="m102.67,104.58l11.7,23.18h-5.17l-10.02-21.51-.12-.38c1.21-.37,2.41-.8,3.61-1.29Z"/>
      <path class="cls-3" d="m91,107.87l9.17,19.89h-4.4l-8.96-19.39v-.16c1.37-.1,2.76-.26,4.17-.48l.02.14Z"/>
      <path class="cls-4" d="m89.94,28.19c1.06.07,3.07.56,3.55.98,29.85,25.95,13.15,39.21-4.3,46.25-.01,0-.01.01-.02.01-8.4,3.39-16.96,5.33-20.6,6.56-22.03,7.44-32.66,8.09-37.79,6.82-3.31-.82-4.33-5.04-1.77-7.3l28.15-24.8,4.45-3.93,22.38-19.73c.21-.18,5.12-4.76,5.39-4.84.12-.03.31-.04.56-.02Z"/>
      <path class="cls-3" d="m36.83,94.67c-19.27,3.55-30.5,1.19-30.17.08.57-1.9,54.95-41.97,54.95-41.97l-4.45,3.93-28.15,24.8c-2.56,2.26-1.54,6.48,1.77,7.3,5.13,1.27,15.76.62,37.79-6.82,3.64-1.23,12.2-3.17,20.6-6.56-13.36,7.2-25.54,12.07-36.2,15.29-1.56.47-3.1.91-4.59,1.32-4.11,1.11-7.97,1.97-11.55,2.63Z"/>
      <path class="cls-2" d="m60.96,103.93c.2.14.42.28.66.42-.61.64-16.16,17.08-18.3,17.58-.87.2-1.71-.73-2.31-2.02-.92-1.97-1.3-4.78-.38-5.71,1.38-1.39,10.6-19.55,12.34-23,.03-.05.07-.08.12-.08.07,0,.15.06.15.16-.02,8.29,6.35,11.95,7.68,12.63.02,0,.03.01.04.02Z"/>
      <path class="cls-4" d="m52.97,90.72l.12.4c-.05,0-.09.03-.12.08-1.74,3.45-10.96,21.61-12.34,23-.92.93-.54,3.74.38,5.71l-.15.07c-13.07,10.92-29.27,24.45-38.29,31.98-1.23,1.02-2.94-.48-2.08-1.83,1.73-2.7,4.72-7.32,8.28-12.82,17.32-1.23,39.61-45.27,39.61-45.27,1.49-.41,3.03-.85,4.59-1.32Z"/>
      <path class="cls-3" d="m36.83,94.67c3.58-.66,7.44-1.52,11.55-2.63,0,0-22.29,44.04-39.61,45.27,9.75-15.02,23.8-36.53,28.06-42.64Z"/>
    </g>
  </g>
</svg>